# xmcd
#
# Track frame offsets:
#	150
#	16271
#	18463
#	31699
#	47028
#	49503
#	63142
#	71022
#	73510
#	87394
#	95835
#	109651
#	112692
#	131665
#	153734
#	156929
#	159654
#
# Disc length: 2249 seconds
#
# Revision: 1
# Processed by: cddbd v1.5.2PL0 Copyright (c) Steve Scherf et al.
# Submitted via: audiograbber 1.83.01
#
DISCID=d908c711
DTITLE=Frau Wäber - Fideralala
DYEAR=1900
DGENRE=
TTITLE0=der hut muß mit
TTITLE1=wettertip hitze
TTITLE2=Fideralala
TTITLE3=hermine
TTITLE4=wettertip regen
TTITLE5=meine heimliche liebe
TTITLE6=sie läuft
TTITLE7=wettertip schnee
TTITLE8=schnellkochtopf
TTITLE9=in echt
TTITLE10=www.wäber
TTITLE11=wettertip wind
TTITLE12=männer
TTITLE13=fahr zur kur
TTITLE14=werbung
TTITLE15=wettertip kälte
TTITLE16=in de bütt
EXTD=
EXTT0=
EXTT1=
EXTT2=
EXTT3=
EXTT4=
EXTT5=
EXTT6=
EXTT7=
EXTT8=
EXTT9=
EXTT10=
EXTT11=
EXTT12=
EXTT13=
EXTT14=
EXTT15=
EXTT16=
PLAYORDER=
